The Hobbit: An Unexpected Journey (2012) 1080p High Definition Trailer

HD AVI format

+-------------------+
|Detailed Media Info|
+-------------------+


General

Format                           : AVI
Format/Info                      : Audio Video Interleave
File size                        : 193 MiB
Duration                         : 2mn 31s
Overall bit rate                 : 10.7 Mbps
Movie name                       : The Hobbit: An Unexpected Journey
Writing application              : Lavf51.12.1
Copyright                        : Â© 2011 Warner Bros. Pictures. All Rights Reserved

Video

ID                               : 0
Format                           : MPEG-4 Visual
Codec ID                         : MP43
Codec ID/Info                    : Microsoft MPEG-4 v3 (pre-standard)
Codec ID/Hint                    : Microsoft
Duration                         : 2mn 31s
Bit rate                         : 10.4 Mbps
Width                            : 1 920 pixels
Height                           : 1 080 pixels
Display aspect ratio             : 16:9
Frame rate                       : 23.976 fps
Compression mode                 : Lossy
Bits/(Pixel*Frame)               : 0.209
Stream size                      : 187 MiB (97%)

Audio

ID                               : 1
Format                           : MPEG Audio
Format version                   : Version 1
Format profile                   : Layer 3
Mode                             : Joint stereo
Mode extension                   : MS Stereo
Codec ID                         : 55
Codec ID/Hint                    : MP3
Duration                         : 2mn 31s
Bit rate mode                    : Constant
Bit rate                         : 320 Kbps
Channel(s)                       : 2 channels
Sampling rate                    : 44.1 KHz
Compression mode                 : Lossy
Stream size                      : 5.76 MiB (3%)
Alignment                        : Aligned on interleaves
Interleave, duration             : 26 ms (0.63 video frame)
Interleave, preload duration     : 26 ms
Writing library                  : LAME3.97
